<?xml version="1.0" encoding="UTF-8" standalone="no"?>
<svg xmlns="http://www.w3.org/2000/svg" viewBox="0 0 800 600">
  <!-- Dark blue circle background -->
  <circle cx="400" cy="300" r="280" fill="#0a0a3c"/>
  
  <!-- Sunset gradient -->
  <path d="M 150 300 A 250 250 0 0 1 650 300 L 650 450 A 250 250 0 0 1 150 450 Z" fill="url(#sunset)"/>
  
  <!-- Mountains -->
  <path d="M 150 450 L 250 300 L 350 400 L 450 250 L 550 350 L 650 300 L 650 450 Z" fill="#0a0a3c"/>
  
  <!-- Sun -->
  <circle cx="400" cy="300" r="80" fill="white"/>
  
  <!-- Paraglider silhouette -->
  <path d="M 400 320 L 380 280 C 320 240, 480 240, 420 280 Z" fill="#0a0a3c"/>
  <path d="M 400 320 L 390 300 M 400 320 L 410 300" stroke="#0a0a3c" stroke-width="2"/>
  
  <!-- Person silhouette -->
  <circle cx="400" cy="320" r="5" fill="#0a0a3c"/>
  <rect x="397" y="325" width="6" height="10" fill="#0a0a3c"/>
  <path d="M 397 330 L 390 340 M 403 330 L 410 340" stroke="#0a0a3c" stroke-width="2"/>
  
  <!-- Parachute lines -->
  <path d="M 400 320 L 380 280 M 400 320 L 420 280" stroke="#0a0a3c" stroke-width="1"/>
  
  <!-- Gradient definitions -->
  <defs>
    <linearGradient id="sunset" x1="0%" y1="0%" x2="0%" y2="100%">
      <stop offset="0%" style="stop-color:#ffc107"/>
      <stop offset="50%" style="stop-color:#ff7b00"/>
      <stop offset="100%" style="stop-color:#ffc107"/>
    </linearGradient>
  </defs>
</svg>
