<?xml version="1.0" encoding="UTF-8" standalone="no" ?>
<!DOCTYPE svg PUBLIC "-//W3C//DTD SVG 1.1//EN" "http://www.w3.org/Graphics/SVG/1.1/DTD/svg11.dtd">
<svg xmlns="http://www.w3.org/2000/svg" xmlns:xlink="http://www.w3.org/1999/xlink" version="1.1" width="1280" height="1024" viewBox="0 0 1280 1024" xml:space="preserve">
<desc>Created with Fabric.js 5.3.0</desc>
<defs>
</defs>
<g transform="matrix(1 0 0 1 640 512)" id="background-logo"  >
<rect style="stroke: none; stroke-width: 0; stroke-dasharray: none; stroke-linecap: butt; stroke-dashoffset: 0; stroke-linejoin: miter; stroke-miterlimit: 4; fill: rgb(255,255,255); fill-opacity: 0; fill-rule: nonzero; opacity: 1;"  paint-order="stroke"  x="-640" y="-512" rx="0" ry="0" width="1280" height="1024" />
</g>
<g transform="matrix(1.9211538461538462 0 0 1.9211538461538462 640 512)" id="logo-logo"  >
<g style=""  paint-order="stroke"   >
		<g transform="matrix(0.419823636414705 0 0 0.419823636414705 -0.7808299492177753 -25.833988466249423)"  >
<linearGradient id="SVGID_2_156498" gradientUnits="userSpaceOnUse" gradientTransform="matrix(1 0 0 1 0 0)"  x1="508.152832" y1="526.9549561" x2="508.152832" y2="167.8765869">
<stop offset="0%" style="stop-color:rgb(255,255,130);stop-opacity: 1"/>
<stop offset="100%" style="stop-color:rgb(241,94,55);stop-opacity: 1"/>
</linearGradient>
<path style="stroke: none; stroke-width: 1; stroke-dasharray: none; stroke-linecap: butt; stroke-dashoffset: 0; stroke-linejoin: miter; stroke-miterlimit: 4; fill: url(#SVGID_2_156498); fill-rule: nonzero; opacity: 1;"  paint-order="stroke"  transform=" translate(-508.1528259765795, -423.39415235410934)" d="M 183.3805847 594.1991577 C 183.3805847 594.1991577 171.8782959 481.8305664 237.35289 391.5818176 C 302.8274841 301.33306880000004 401.0393982 253.55427550000002 504.5600433 242.0519714 C 608.0806732 230.5496826 741.6842498000001 324.3376159 781.4999237 391.5818176 C 821.3155365 458.82598870000004 833.7026215 514.5678711 833.7026215 525.1853637 C 833.7026215 535.8028563 827.5090789999999 605.7014159 827.5090789999999 605.7014159 L 183.3805847 594.1991577 z" stroke-linecap="round" />
</g>
		<g transform="matrix(0.419823636414705 0 0 0.419823636414705 0.07499821802116458 -4.396495309035458)"  >
<path style="stroke: none; stroke-width: 1; stroke-dasharray: none; stroke-linecap: butt; stroke-dashoffset: 0; stroke-linejoin: miter; stroke-miterlimit: 4; fill: rgb(255,255,255); fill-rule: nonzero; opacity: 1;"  paint-order="stroke"  transform=" translate(-510.1913681, -474.45724480000007)" d="M 615.4802246 517.3740234 C 617.2484131 513.0408325000001 618.7587891000001 508.57705680000004 619.9883423 503.9962158000001 L 771.2689209 500.61938470000007 L 622.3326416 493.14135740000006 C 623.0996704 488.5040283000001 623.5853271 483.7743530000001 623.7731323 478.96572870000006 L 686.6151733 476.96417230000003 L 623.8367920000001 472.4665527 C 623.7369995 466.6798706 623.2093506000001 461.0003967 622.2758789000001 455.4553833 L 739.4165039000001 452.8406372 L 620.4985962000001 446.8698425 C 619.4921265 442.8328857 618.2792969000001 438.8784485 616.8542481000001 435.025299 L 668.2557984 433.3881835 L 614.6569214 429.5482787 C 612.1623535 423.75341790000004 609.1866454999999 418.21896350000003 605.8035889 412.96954330000005 L 691.9239502 411.0471800000001 L 601.3483887 406.4994505000001 C 597.2504273 401.0114134000001 592.6528931 395.9226072000001 587.6502686 391.2628782000001 L 672.4585572 389.3698118000001 L 579.9699097 384.7260435000001 C 560.7042237000001 369.7225645000001 536.5014649 360.7614744000001 510.1914368 360.7614744000001 C 483.88128670000003 360.7614744000001 459.67843630000004 369.7225645000001 440.4128418 384.7260435000001 L 347.9241943 389.3698118000001 L 432.73248290000004 391.2628782000001 C 427.72988890000005 395.92260720000013 423.1323242 401.0114134000001 419.03436280000005 406.4994505000001 L 328.45883180000004 411.0471800000001 L 414.57913210000004 412.96954330000005 C 411.19607550000006 418.21896350000003 408.22039800000005 423.7534178000001 405.72583010000005 429.5482787000001 L 352.12695310000004 433.3881835000001 L 403.52850340000003 435.0252990000001 C 402.1034546 438.8784484000001 400.89062500000006 442.8328857000001 399.88415530000003 446.86984250000006 L 280.96624760000003 452.84063720000006 L 398.1069031 455.45538330000005 C 397.1734009 461.00039670000007 396.645752 466.6798706000001 396.545929 472.4665527000001 L 333.7676087 476.9641723000001 L 396.60958869999996 478.9657287000001 C 396.79742439999995 483.77435300000013 397.28305059999997 488.50402830000013 398.05010989999994 493.1413574000001 L 249.11381529999994 500.6193847000001 L 400.3944091999999 503.99621580000013 C 401.62393189999995 508.5770569000001 403.1343688999999 513.0408325000001 404.9024963999999 517.3740234000002 L 345.2698059999999 521.6461792000001 L 407.6548157999999 523.6331177000001 C 425.99377449999986 561.8020630000001 465.0140686999999 588.1530152 510.19143689999987 588.1530152 C 555.3686524999998 588.1530152 594.3889771999999 561.8020631 612.7279053999998 523.6331177000001 L 675.1129151999999 521.6461792000001 L 615.4802246 517.3740234 z" stroke-linecap="round" />
</g>
		<g transform="matrix(0.419823636414705 0 0 0.419823636414705 0 36.02853125170145)"  >
<path style="stroke: none; stroke-width: 1; stroke-dasharray: none; stroke-linecap: butt; stroke-dashoffset: 0; stroke-linejoin: miter; stroke-miterlimit: 4; fill: rgb(7,10,53); fill-rule: nonzero; opacity: 1;"  paint-order="stroke"  transform=" translate(-510.0127259, -570.7477417)" d="M 844.4185181 598.6271362 C 845.1983033 589.4436645 845.5795288 580.138977 845.5795288 570.7476806 C 845.5795288 385.7281494 695.0410156 235.18969719999996 510.02142330000004 235.18969719999996 C 324.9845581000001 235.18969719999996 174.4633789 385.7281492999999 174.4633789 570.7476806 C 174.4633789 580.138977 174.84454350000001 589.4436645 175.6242676 598.6271362 L 33.6280518 598.6271362 L 33.6280518 619.8529663 L 178.0501099 619.8529663 L 199.08526609999998 619.8529663 L 820.9575806 619.8529663 L 841.9927979 619.8529663 L 986.3974000000001 619.8529663 L 986.3974000000001 598.6271362 L 844.4185181 598.6271362 z M 730.4769287 566.1806641 C 708.6520386000001 561.4618531 693.9055176 546.1254273 693.9055176 546.1254273 C 693.9055176 546.1254273 677.979187 560.2821045 672.6705322 554.3834228999999 C 667.3617553 548.4848632999999 627.8410034 523.1207886 627.8410034 523.1207886 L 595.9885864 533.7383423 C 595.9885864 533.7383423 587.7304687000001 535.5078735 569.4448242000001 520.1715698 C 551.1590576000001 504.835144 517.5369873000001 480.6508178 517.5369873000001 480.6508178 C 517.5369873000001 480.6508178 478.6062012000001 504.835144 459.73065190000005 514.2728881 C 440.8550415000001 523.7106933 385.9979248000001 542.5862426 385.9979248000001 542.5862426 L 374.20074460000006 538.4572143 C 374.20074460000006 538.4572143 350.0164184000001 553.7936401000001 344.11773680000005 553.2037353000001 C 338.21917720000005 552.6138915 320.52331540000006 543.7659912 320.52331540000006 543.7659912 C 320.52331540000006 543.7659912 266.25610350000005 567.9503174 262.12701410000005 568.5401001 C 259.04968260000004 568.9797363 216.66107170000004 569.7468872000001 195.26416010000005 570.1092529 C 195.61083980000006 396.85333249999996 336.668579 255.98229980000002 510.02142330000004 255.98229980000002 C 682.5581665 255.98229980000002 823.1142578 395.56164550000005 824.748413 567.7196655 C 802.4941406 568.4830322 747.7175903 569.9083862 730.4769287 566.1806641 z M 787.2214966 759.6485596 L 986.3973999 759.6485596 L 986.3973999 780.8917237000001 L 771.4538574 780.8917237000001 C 709.9076537999999 857.3218384 615.5785521999999 906.3057862000001 510.0214232999999 906.3057862000001 C 404.46429439999997 906.3057862000001 310.13513179999995 857.3218384 248.57165519999995 780.8917237000001 L 33.6280518 780.8917237000001 L 33.6280518 759.6485596 L 232.8039551 759.6485596 L 258.3962403 759.6485596 L 761.6467286 759.6485596 L 787.2214966 759.6485596 z" stroke-linecap="round" />
</g>
		<g transform="matrix(0.419823636414705 0 0 0.419823636414705 1.8587778405753852 26.92147741633505)"  >
<linearGradient id="SVGID_3_156499" gradientUnits="userSpaceOnUse" gradientTransform="matrix(1 0 0 1 0 0)"  x1="514.4402466" y1="607.4710083" x2="514.4402466" y2="477.2141418">
<stop offset="0%" style="stop-color:rgb(255,255,130);stop-opacity: 1"/>
<stop offset="100%" style="stop-color:rgb(241,94,55);stop-opacity: 1"/>
</linearGradient>
<path style="stroke: none; stroke-width: 1; stroke-dasharray: none; stroke-linecap: butt; stroke-dashoffset: 0; stroke-linejoin: miter; stroke-miterlimit: 4; fill: url(#SVGID_3_156499); fill-rule: nonzero; opacity: 1;"  paint-order="stroke"  transform=" translate(-514.4402465999999, -549.0551711883902)" d="M 711.6013794 594.4940796 C 720.4492798 597.1483764999999 740.5045776000001 599.8027344 740.5045776000001 599.8027344 C 740.5045776000001 599.8027344 688.4493408000001 601.1300049 677.3894043 594.4940796 C 666.3294678 587.8580933 635.9515991000001 562.7890014999999 635.9515991000001 562.7890014999999 C 635.9515991000001 562.7890014999999 647.4539184 584.9088135 651.4355469000001 588.0056152999999 C 655.4170532 591.102356 660.7258301 596.4111329 660.7258301 596.4111329 C 660.7258301 596.4111329 621.2051392000001 597.7382813 613.6844483000001 594.1991578 C 606.1636353000001 590.6599732 589.9425049000001 572.9641723999999 586.8457032000001 571.1945191 C 583.7489625000001 569.4249268 577.9978028000002 565.0009766 577.9978028000002 565.0009766 C 577.9978028000002 565.0009766 589.0577393000002 582.2544555999999 592.1544800000001 586.6783448 C 595.2512818000001 591.102356 601.0023804000001 595.5263062 601.0023804000001 595.5263062 C 601.0023804000001 595.5263062 561.1867066000001 596.4111329 552.3388062000001 589.3327637 C 543.4908448000001 582.2544556 533.3157959000001 564.5585938 528.8917847000001 556.1530762 C 524.4678955000002 547.7474976 520.4862671000001 539.7844848999999 520.4862671000001 539.7844848999999 C 520.4862671000001 539.7844848999999 528.0070191000001 546.8627929999999 535.0853272 550.4019165 C 542.1637574 553.9410399999999 550.1267701 557.4802245999999 550.1267701 557.4802245999999 C 550.1267701 557.4802245999999 532.8734132000001 540.2268677 528.8917847 534.0333251999999 C 526.9325562 530.9855346999999 524.8685913 526.7629394999999 523.2749634 523.2561645999999 C 521.2622681 524.5026245999999 517.5267334 526.5461425999999 511.34347540000005 529.0194703 C 501.02090460000005 533.1484376 478.90103160000007 541.7014161 478.90103160000007 541.7014161 C 478.90103160000007 541.7014161 490.9932557000001 535.2130128 502.49557510000005 526.3651123999999 C 513.9978639000001 517.517212 520.4862672 513.6831056 520.4862672 513.6831056 L 520.5570069 513.8069459 L 520.928711 498.1992494 C 520.928711 498.1992494 574.9010010000001 538.8995973 579.767334 541.9963991 C 584.633728 545.0931398 624.8917847 532.2636719999999 624.8917847 532.2636719999999 C 624.8917847 532.2636719999999 654.9746704 554.3834229999999 663.3802491 560.1345825999999 C 671.7856446000001 565.8857423 676.6520387 565.0009766 676.6520387 565.0009766 L 692.5783082 558.8074340999999 C 692.5783082 558.8074340999999 717.3525392 573.4065552 729.2972413 574.7336425999999 C 741.2418824 576.0609131 779.7303468 576.9456786999999 779.7303468 576.9456786999999 C 779.7303468 576.9456786999999 739.914673 582.2544555999999 726.2004396 582.2544555999999 C 712.4861452 582.2544555999999 712.0437624 584.9088135 706.2926027 582.6968383999999 C 700.541443 580.4848023 687.7119753 572.0792846999999 687.7119753 572.0792846999999 C 687.7119753 572.0792846999999 693.9055178 582.6968383999999 697.0023195 586.2359618999999 C 700.0990601 589.7751465 706.076416 592.8365479 711.6013794 594.4940796 z M 503.9569092 503.0851135 C 503.0732117 503.44900509999997 474.9338989 515.5433349 466.21838379999997 520.4642334 C 457.3641052 525.4718018 439.37847899999997 531.6749268 429.640625 535.5042725 C 421.8780823 538.553772 414.8605957 539.7493896999999 412.3481445 540.1132812999999 C 417.5462951 539.4895019999999 442.1682434 536.3012696 457.65875239999997 530.7912597999999 C 474.7952576 524.6920166 503.0732117 503.7435608 503.9569092 503.0851135 z M 357.9794922 562.3466187 C 368.5970154 556.742981 373.9057922 547.8950806 373.9057922 547.8950806 C 373.9057922 547.8950806 362.99328610000003 553.4986573 359.1592102 555.5631714 C 355.3251953 557.6277466 346.182312 563.5263062 342.05325320000003 564.7060547 C 337.92419440000003 565.8857422 330.84591680000005 567.0654906999999 330.84591680000005 567.0654906999999 C 330.84591680000005 567.0654906999999 347.36203 567.9503174 357.9794922 562.3466187 z M 288.0809631 568.5401611 C 280.41278070000004 572.9641723 270.3851318 576.208313 267.1409301 576.7982787999999 C 263.8966369 577.3880614999999 249.15014639999998 579.7474976 249.15014639999998 579.7474976 C 249.15014639999998 579.7474976 276.87362659999997 578.8627319999999 286.60629259999996 575.6185303 C 296.33898909999994 572.3742675999999 309.31597889999995 564.7060547 310.7906493 563.2313843 C 312.26531969999996 561.7567749 315.8044432 557.9226685 315.8044432 557.9226685 C 315.8044432 557.9226685 295.749176 564.1162109 288.0809631 568.5401611 z M 435.2513428 563.2313843 C 427.87808229999996 567.0654906999999 421.97952269999996 568.8350829999999 421.97952269999996 568.8350829999999 C 421.97952269999996 568.8350829999999 439.97021479999995 567.3604125999999 446.45867919999995 562.3466185999999 C 452.9471740999999 557.3327635999999 448.81811519999997 556.1530760999999 456.4863280999999 550.8442993 C 464.1545409999999 545.5355225000001 470.3480834999999 537.8674316 470.3480834999999 537.8674316 L 458.8457641999999 540.8166504000001 C 449.7030029999999 543.1760864 432.3020019999999 552.9088745 421.9795226999999 556.7429810000001 C 411.65692139999993 560.5770874000001 398.3849791999999 562.6415406000001 398.3849791999999 562.6415406000001 C 398.3849791999999 562.6415406000001 423.45407099999994 561.4618531000001 433.7766722999999 558.2175294000001 C 444.0992735999999 554.9733277000001 444.0992735999999 554.9733277000001 444.0992735999999 554.9733277000001 C 444.0992735999999 554.9733277000001 442.6246033 559.3972778 435.2513428 563.2313843 z M 492.467926 548.1898804 C 492.467926 548.1898804 483.3250427 554.3834229 472.11770629999995 561.7567749 C 460.91033939999994 569.1300659 452.0624084 572.9641723999999 450.29278559999995 573.2589722 C 448.52328489999996 573.5539551 443.80429069999997 573.848938 443.80429069999997 573.848938 C 443.80429069999997 573.848938 459.4356689 575.0286255 473.29742419999997 567.3604126 C 487.1591492 559.6921997 492.467926 548.1898804 492.467926 548.1898804 z M 311.6753845 585.6461792 C 311.6753845 585.6461792 332.6155395 589.4802856 347.9518432 585.94104 C 363.2882385 582.4018554 374.7905578 574.4388427 374.7905578 574.4388427 C 373.9057922 574.4388427 359.7491149 576.7982787 344.70764149999997 580.927185 C 329.6661987 585.0562744 311.6753845 585.6461792 311.6753845 585.6461792 z M 465.6292114 581.5170898 C 465.6292114 581.5170898 486.86419679999995 582.1069336 498.66146849999996 577.9779663 C 510.45861819999993 573.8489380000001 517.5369873 563.2313843000001 517.5369873 563.2313843000001 C 517.5369873 563.2313843000001 512.5231934 566.7706299 494.53240969999996 572.9641724 C 476.5415955 579.1577148 465.6292114 581.5170898 465.6292114 581.5170898 z" stroke-linecap="round" />
</g>
		<g transform="matrix(0.419823636414705 0 0 0.419823636414705 22.261997266142714 -87.23626294124404)"  >
<path style="stroke: none; stroke-width: 1; stroke-dasharray: none; stroke-linecap: butt; stroke-dashoffset: 0; stroke-linejoin: miter; stroke-miterlimit: 4; fill: rgb(7,10,53); fill-rule: nonzero; opacity: 1;"  paint-order="stroke"  transform=" translate(-563.039748047348, -277.13684535879537)" d="M 700.6998291 159.2060089 C 601.8673706 51.2969971 413.7830505 45.2460632 347.2225037 89.1156082 C 280.6618042 132.9850159 335.6247559 158.19738769999998 385.0409851 160.21449280000002 C 434.4572143 162.23147580000003 507.0688476 97.68776700000001 622.0372925 178.36729430000003 C 622.0372925 178.36729430000003 600.8588867000001 130.96804810000003 549.4256592 97.68776700000002 C 549.4256592 97.68776700000002 615.9862061 126.93408960000002 643.2155152 186.43534850000003 C 670.4450074 245.93647770000004 657.5070801 271.35290530000003 668.4279175 294.34420780000005 C 669.0531006 295.6603089000001 669.6972046000001 296.95681770000004 670.3560791 298.23748780000005 L 515.399353 426.0774841 C 515.5753174 420.053009 516.4036255 413.6947632 511.4978332 413.6947632 C 507.8970336 413.6947632 500.1470031 414.2314453 494.4732665 414.6645813 C 494.57437120000003 414.3318481 494.658142 413.9515381 494.69424430000004 413.4476929 C 494.90332020000005 410.5195313 495.32147210000005 406.5455933 494.69424430000004 404.2450867 C 494.06658930000003 401.9444275 490.92935170000004 398.80719 486.9554137 398.80719 C 486.9554137 398.80719 480.0535582 399.4346924 480.47174060000003 405.29086309999997 C 480.89028920000004 411.1471863 479.00778190000005 409.89202889999996 479.6354064 411.9834901 C 480.2626647 414.0750734 480.47174060000003 417.00323499999996 482.35421740000004 417.6304628 C 482.35421740000004 417.6304628 476.70724470000005 422.44113169999997 472.52423080000005 420.5586244 C 469.0892638000001 419.0129091 467.62908920000007 413.1014406 466.40612780000004 410.1078798 L 452.2301024 171.53547679999997 L 457.1298522 373.17788709999996 L 403.60977160000004 171.91239939999997 L 448.83798200000007 375.81613169999997 L 344.81304910000006 183.97332769999997 L 454.31668070000006 404.66012579999995 C 453.6905515000001 406.59262089999993 454.98056010000005 408.59582529999994 455.79238870000006 411.35626229999997 C 456.33029150000004 413.18484509999996 458.1987303000001 417.17080699999997 460.4246519000001 421.12380989999997 C 460.65982040000006 428.42962659999995 462.1582334000001 442.51345829999997 469.9282835000001 448.89739999999995 C 466.55899030000006 449.80142219999993 461.89468360000006 450.88195809999996 459.13870220000007 452.76770029999994 C 455.1647642000001 455.48651129999996 453.91003400000005 460.50625619999994 451.1912230000001 466.15322889999993 C 448.4721373000001 471.8002015999999 444.9165953000001 479.32952889999996 442.6160887000001 480.79348769999996 C 440.3154295000001 482.25769059999993 436.7596434000001 486.23138439999997 435.5049132000001 489.36862199999996 C 434.25003040000007 492.50582899999995 440.94265730000006 489.36862199999996 446.5896300000001 488.11373919999994 C 452.2369994000001 486.85888689999996 453.0733031000001 485.3949281999999 455.1647643000001 482.25769059999993 C 457.25634760000014 479.1204530999999 463.1126708000001 465.10742199999993 463.1126708000001 465.10742199999993 C 463.1126708000001 465.10742199999993 461.4393615000001 474.30978409999994 461.0212096000001 477.8656006999999 C 460.60266100000007 481.4211121999999 459.1387023000001 483.7216492999999 457.0472716000001 485.1855774999999 C 454.9556883000001 486.6497803999999 454.3284606000001 490.8325501999999 455.5833129000001 490.6234741999999 C 456.83819570000014 490.4143982999999 470.6417235000001 488.9504394999999 470.4326476000001 485.6041260999999 C 470.2812804000001 483.1821289999999 471.8803710000001 473.65890519999994 473.0146788000001 467.8576050999999 C 476.45803820000015 468.02951059999987 482.6954955000001 467.2148133999999 486.9993285000001 467.2148133999999 C 492.8411864000001 467.2148133999999 501.5099791000001 464.3880311999999 502.2638549000001 463.0689698999999 C 503.0175780000001 461.7497559999999 508.6711730000001 463.2573548999999 511.68637080000013 460.4305726999999 C 512.3753662000001 459.7846986999999 512.9711303000001 458.1753236999999 513.4807739000001 456.0399476999999 C 518.0977783000002 455.0238954999999 522.9017944000002 453.1078797999999 525.4432983000002 449.5004579999999 C 530.1296386000001 442.8489076999999 530.2070312000002 432.2121889999999 530.0546264000002 428.2575685999999 C 530.1813964000002 428.2036439999999 530.3427734000002 428.1386415999999 530.4584350000002 428.0881044999999 C 531.9381713000002 427.44073509999987 532.7514038000003 426.58523579999985 533.3745727000003 425.6734926999999 L 749.7733154000002 364.9715578999999 C 781.8370971000003 374.1516420999999 809.6171875000002 365.8901979999999 809.6171875000002 340.7349855999999 C 809.6171875 340.7349854 780.8970337 246.7681885 700.6998291 159.2060089 z M 476.9163513 438.5455933 C 476.3881836 441.4502259 476.02407839999995 443.8507691 475.25061029999995 445.5448914 C 472.97698969999993 444.026886 470.59915159999997 441.8056946 468.90801999999996 438.5703125 C 467.31826779999994 435.5290527 466.5950622 432.4662781 466.31085199999995 429.802063 C 466.50222769999993 430.00790409999996 466.69400019999995 430.21508789999996 466.87725819999997 430.3886109 C 466.98904409999994 430.4944459 467.1064757 430.5721436 467.2206725 430.6658021 L 467.68301379999997 431.5976563 L 467.64801009999996 431.0089417 C 471.54885849999994 433.6491089 476.61697369999996 430.08926399999996 478.38055399999996 431.8525696 C 480.2626648 433.7350769 477.7530518 433.9441528 476.9163513 438.5455933 z M 520.7319336 447.2389832 C 518.9944458 448.8478089 516.7084351000001 449.9205018 514.4498901000001 450.6470643 C 515.164978 445.4313355 515.5458374000001 439.2448731 515.5767822 434.6336671 C 515.7338257 434.53527840000004 515.8640136 434.4675904 516.0272827 434.36257950000004 C 517.7474365 433.2567751 521.2670288 431.79391490000006 524.5606079 430.47512830000005 C 524.7487793 433.2674561 525.0856934 443.2077332 520.7319336 447.2389832 z M 671.1123657 299.6595459 C 678.9027099000001 314.3746643 688.8678589000001 326.7056274 699.882019 336.6796875 L 555.8779907 402.1993103 L 671.1123657 299.6595459 z M 561.5315552 408.983551 L 701.3904418999999 338.0353698 C 716.2844848999999 351.1226196 732.9570312999999 359.9674987 748.6742553999999 364.6488342 L 561.5315552 408.983551 z" stroke-linecap="round" />
</g>
		<g transform="matrix(0.419823636414705 0 0 0.419823636414705 20.665576122903587 -113.01895871932209)"  >
<linearGradient id="SVGID_4_156500" gradientUnits="userSpaceOnUse" gradientTransform="matrix(1 0 0 1 0 0)"  x1="524.6118774" y1="275.7823486" x2="650.1201172" y2="105.0458984">
<stop offset="0%" style="stop-color:rgb(255,255,130);stop-opacity: 1"/>
<stop offset="100%" style="stop-color:rgb(241,94,55);stop-opacity: 1"/>
</linearGradient>
<path style="stroke: none; stroke-width: 1; stroke-dasharray: none; stroke-linecap: butt; stroke-dashoffset: 0; stroke-linejoin: miter; stroke-miterlimit: 4; fill: url(#SVGID_4_156500); fill-rule: nonzero; opacity: 1;"  paint-order="stroke"  transform=" translate(-559.2371485632583, -215.72368625641042)" d="M 665.3679199 148.3560791 C 680.0670776 157.40171809999998 706.6386719 181.7118835 706.6386719 181.7118835 C 706.6386719 181.7118835 706.6386719 181.7118835 698.1583863 175.4929962 C 689.6781007 169.2741241 665.3679199999999 159.6631317 665.3679199999999 159.6631317 L 678.9364013999999 183.4079437 C 678.9364013999999 183.4079437 689.6781005999999 184.53863520000002 707.7693481999999 196.9763946 C 725.8606567999999 209.414154 745.6480102999999 235.4203643 745.6480102999999 235.4203643 C 745.6480102999999 235.4203643 742.8212280999999 234.28965749999998 731.5141601999999 223.54795829999998 C 720.2071533999999 212.80625909999998 686.8513183999999 200.93386829999997 686.8513183999999 200.93386829999997 L 694.7662963999999 228.63613879999997 C 694.7662963999999 228.63613879999997 707.2040404999999 234.28965749999998 729.2527465999999 247.29277029999997 C 751.3015136999999 260.2958678 775.0463256999999 293.6516723 775.0463256999999 293.6516723 C 775.0463256999999 293.6516723 775.0463256999999 293.6516723 755.8243407999998 278.38714589999995 C 736.6023558999998 263.12265009999993 699.2890624999999 246.16206349999996 699.2890624999999 246.16206349999996 L 704.9426269999999 279.51785269999993 C 704.9426269999999 279.51785269999993 720.2071533999999 286.8674315999999 739.9944457999999 295.91308589999994 C 759.7817992999999 304.95870969999993 784.0919799999999 326.4421080999999 784.0919799999999 326.4421080999999 C 770.5234985999999 313.43899529999993 711.1614989999999 301.5665892999999 711.1614989999999 301.5665892999999 C 721.9031981999999 323.0499876999999 773.3502807 352.4483336999999 773.3502807 352.4483336999999 C 749.6054687 351.8829649999999 707.7693481 325.8767699999999 694.2009277 302.13195799999994 C 680.6324463 278.3871459999999 687.4166869999999 256.9037475999999 672.1521606 209.97950739999993 C 656.8876342000001 163.05526719999995 615.6169433 118.95775599999993 615.6169433 118.95775599999993 C 615.6169433 118.95775599999993 650.6687622 139.3104401 665.3679199 148.3560791 z M 514.7015381 89.8421021 C 514.7015381 89.8421021 459.39120479999997 72.78730780000001 414.53988649999997 81.4560395 C 369.68856819999996 90.1247712 338.40576169999997 107.4622575 334.63674929999996 120.6538163 C 330.86773689999995 133.8453751 370.06552129999994 144.0217133 379.8649597 146.6600343 C 389.6643982 149.29834 389.6643982 149.29834 389.6643982 149.29834 C 389.6643982 149.29834 348.2052002 131.5839693 349.335907 122.9152223 C 350.46661380000006 114.24647529999999 366.67340090000005 105.954651 366.67340090000005 105.954651 C 366.67340090000005 105.954651 425.09313970000005 138.7450868 423.96243290000007 138.7450868 C 422.8317261000001 138.7450868 380.9956665000001 101.8087312 380.9956665000001 100.6780244 C 380.9956665000001 99.5473252 404.3635559000001 94.2706987 411.52468870000007 93.8937989 C 418.68582150000003 93.51689909999999 460.14498900000007 129.6994477 460.14498900000007 129.6994477 C 460.14498900000007 129.6994477 433.00808710000007 95.0245057 431.87738040000005 91.25548560000001 C 430.74667370000003 87.48646550000002 454.11456300000003 88.24027260000001 463.5371094000001 90.50168620000001 C 472.95965580000006 92.76309210000001 497.4582520000001 123.292122 497.4582520000001 123.292122 C 497.4582520000001 123.292122 478.8016358000001 94.74182900000001 478.8016358000001 89.8421022 C 478.8016357 84.9423828 514.7015381 89.8421021 514.7015381 89.8421021 z" stroke-linecap="round" />
</g>
</g>
</g>
<g transform="matrix(1.9211538461538462 0 0 1.9211538461538462 641.5609375000001 677.729741342774)" id="text-logo"  >
<g style=""  paint-order="stroke"   >
		<g transform="matrix(1 0 0 1 0 0)" id="text-logo-path-0"  >
<path style="stroke: none; stroke-width: 0; stroke-dasharray: none; stroke-linecap: butt; stroke-dashoffset: 0; stroke-linejoin: miter; stroke-miterlimit: 4; fill: rgb(4,12,52); fill-rule: nonzero; opacity: 1;"  paint-order="stroke"  transform=" translate(-265.35, 17.5)" d="M 25 -35 L 2.75 -35 L 2.75 0 L 25.3 0 C 33.95 0 38.25 -3.6 38.25 -9.75 C 38.25 -13.95 36.4 -16.65 33.1 -17.95 C 35.75 -19.4 37.25 -21.9 37.25 -25.55 C 37.25 -31.9 32.5 -35 25 -35 Z M 16.75 -10.5 L 16.75 -13.75 L 24.1 -13.75 C 24.95 -13.75 25.7 -13.2 25.7 -12.05 C 25.7 -11.05 24.95 -10.5 24.1 -10.5 Z M 16.75 -21.25 L 16.75 -24.5 L 23 -24.5 C 23.85 -24.5 24.6 -23.95 24.6 -22.8 C 24.6 -21.8 23.85 -21.25 23 -21.25 Z M 76.45 -35 L 44.45 -35 L 44.45 0 L 76.45 0 L 76.45 -10.5 L 58.45 -10.5 L 58.45 -12.75 L 74.95 -12.75 L 74.95 -22.25 L 58.45 -22.25 L 58.45 -24.5 L 76.45 -24.5 Z M 118.9 0.75 C 129.25 0.75 136.15 -3.8 138.3 -11.85 L 124.45 -14.5 C 123.65 -11.85 121.7 -10.4 118.9 -10.4 C 115.15 -10.4 112.95 -13 112.95 -17.5 C 112.95 -22 115.15 -24.6 118.9 -24.6 C 121.45 -24.6 123.3 -23.4 124.2 -21.15 L 138.1 -23.85 C 135.8 -31.45 128.95 -35.75 118.9 -35.75 C 106.35 -35.75 98.8 -29.05 98.8 -17.5 C 98.8 -5.95 106.35 0.75 118.9 0.75 Z M 162.6 0.75 C 175.15 0.75 182.7 -5.95 182.7 -17.5 C 182.7 -29.05 175.15 -35.75 162.6 -35.75 C 150.05 -35.75 142.5 -29.05 142.5 -17.5 C 142.5 -5.95 150.05 0.75 162.6 0.75 Z M 156.65 -17.5 C 156.65 -22 158.85 -24.6 162.6 -24.6 C 166.35 -24.6 168.55 -22 168.55 -17.5 C 168.55 -13 166.35 -10.4 162.6 -10.4 C 158.85 -10.4 156.65 -13 156.65 -17.5 Z M 213.45 -35 L 213.45 -17.15 C 213.45 -12.85 211.25 -10.35 207.7 -10.35 C 204.1 -10.35 201.95 -12.85 201.95 -17.15 L 201.95 -35 L 187.95 -35 L 187.95 -17.25 C 187.95 -5.85 195.4 0.75 207.7 0.75 C 220 0.75 227.45 -5.85 227.45 -17.25 L 227.45 -35 Z M 253.75 -35 L 234.15 -35 L 234.15 0 L 248.15 0 L 248.15 -7.75 L 251.65 -7.75 L 255.15 0 L 269.15 0 L 263.4 -10 C 267.2 -12.3 269.35 -16.15 269.35 -21.35 C 269.35 -30.05 263.5 -35 253.75 -35 Z M 248.15 -18.25 L 248.15 -24.5 L 253.65 -24.5 C 255.3 -24.5 256.3 -23.35 256.3 -21.35 C 256.3 -19.35 255.3 -18.25 253.65 -18.25 Z M 286.2 -35 L 272.7 0 L 287.7 0 L 288.9 -4 L 299 -4 L 300.2 0 L 315.2 0 L 301.7 -35 Z M 291.75 -13.5 L 293.95 -20.85 L 296.15 -13.5 Z M 356.3 0 L 356.3 -18.85 L 337.6 -18.85 L 337.6 -13.35 L 342 -13.35 C 341 -11.45 339.25 -10.4 336.9 -10.4 C 333.15 -10.4 330.95 -13 330.95 -17.5 C 330.95 -22 333.15 -24.6 336.9 -24.6 C 339.45 -24.6 341.3 -23.4 342.2 -21.15 L 355.4 -25.75 C 352.6 -32.15 346.05 -35.75 336.9 -35.75 C 324.35 -35.75 316.8 -29.05 316.8 -17.5 C 316.8 -5.95 323.6 0.75 334.9 0.75 C 340.2 0.75 344.5 -0.75 347.6 -3.5 L 347.8 0 Z M 394.9 -35 L 362.9 -35 L 362.9 0 L 394.9 0 L 394.9 -10.5 L 376.9 -10.5 L 376.9 -12.75 L 393.4 -12.75 L 393.4 -22.25 L 376.9 -22.25 L 376.9 -24.5 L 394.9 -24.5 Z M 420.5 0.75 C 433.05 0.75 440.6 -5.95 440.6 -17.5 C 440.6 -29.05 433.05 -35.75 420.5 -35.75 C 407.95 -35.75 400.4 -29.05 400.4 -17.5 C 400.4 -5.95 407.95 0.75 420.5 0.75 Z M 414.55 -17.5 C 414.55 -22 416.75 -24.6 420.5 -24.6 C 424.25 -24.6 426.45 -22 426.45 -17.5 C 426.45 -13 424.25 -10.4 420.5 -10.4 C 416.75 -10.4 414.55 -13 414.55 -17.5 Z M 471.35 -35 L 471.35 -17.15 C 471.35 -12.85 469.15 -10.35 465.6 -10.35 C 462 -10.35 459.85 -12.85 459.85 -17.15 L 459.85 -35 L 445.85 -35 L 445.85 -17.25 C 445.85 -5.85 453.3 0.75 465.6 0.75 C 477.9 0.75 485.35 -5.85 485.35 -17.25 L 485.35 -35 Z M 510.8 0.75 C 521.15 0.75 527.95 -4.05 527.95 -10.7 C 527.95 -23.8 504.65 -20.5 504.65 -24.1 C 504.65 -25.7 511.35 -26.6 521.35 -23.2 L 526.25 -31.8 C 522.3 -33.9 516.25 -35.75 508.9 -35.75 C 497.95 -35.75 491.7 -31.2 491.7 -25 C 491.7 -11.7 513.05 -14.7 513.05 -11.15 C 513.05 -7.85 499.65 -11 494.85 -13.35 L 490.35 -3.2 C 494.6 -1.1 501.65 0.75 510.8 0.75 Z" stroke-linecap="round" />
</g>
</g>
</g>
<g transform="matrix(1.9211538461538462 0 0 1.9211538461538462 639.8996197115384 787.8342573812355)" id="tagline-bbc1cdfb-aa96-49e3-a9d2-2f0cf3cfa416-logo"  >
<g style=""  paint-order="stroke"   >
		<g transform="matrix(1 0 0 1 0 0)" id="tagline-bbc1cdfb-aa96-49e3-a9d2-2f0cf3cfa416-logo-path-0"  >
<path style="stroke: none; stroke-width: 0; stroke-dasharray: none; stroke-linecap: butt; stroke-dashoffset: 0; stroke-linejoin: miter; stroke-miterlimit: 4; fill: rgb(251,201,105); fill-rule: nonzero; opacity: 1;"  paint-order="stroke"  transform=" translate(-43.795, 6.6499999999999995)" d="M 6.25 -10.75 C 7.18 -10.75 7.98 -10.28 7.98 -9.4 C 7.98 -7.11 1.03 -5.26 1.03 -1.03 L 1.03 0 L 11.1 0 L 11.1 -2.85 L 4.98 -2.85 C 6.78 -4.9 11.1 -6.17 11.1 -9.35 C 11.1 -11.74 9.23 -13.6 6.25 -13.6 C 4.26 -13.6 2.43 -12.79 0.99 -11 L 3.17 -9.04 C 3.93 -10.01 5.15 -10.75 6.25 -10.75 Z M 31.48 0.3 C 34.88 0.3 37.09 -2.32 37.09 -6.67 C 37.09 -10.87 34.98 -13.6 31.48 -13.6 C 28.1 -13.6 25.88 -10.98 25.88 -6.67 C 25.88 -2.45 27.99 0.3 31.48 0.3 Z M 31.48 -2.55 C 29.94 -2.55 28.92 -4.12 28.92 -6.65 C 28.92 -9.14 29.89 -10.75 31.48 -10.75 C 33.04 -10.75 34.05 -9.21 34.05 -6.65 C 34.05 -4.16 33.08 -2.55 31.48 -2.55 Z M 56.7 -10.75 C 57.63 -10.75 58.42 -10.28 58.42 -9.4 C 58.42 -7.11 51.47 -5.26 51.47 -1.03 L 51.47 0 L 61.54 0 L 61.54 -2.85 L 55.42 -2.85 C 57.23 -4.9 61.54 -6.17 61.54 -9.35 C 61.54 -11.74 59.68 -13.6 56.7 -13.6 C 54.7 -13.6 52.88 -12.79 51.43 -11 L 53.62 -9.04 C 54.38 -10.01 55.59 -10.75 56.7 -10.75 Z M 86.6 -2.66 L 86.6 -5.51 L 85.27 -5.51 L 85.27 -13.3 L 81.34 -13.3 L 76.15 -4.94 L 76.15 -2.66 L 82.23 -2.66 L 82.23 0 L 85.27 0 L 85.27 -2.66 Z M 82.23 -5.51 L 79.38 -5.51 L 82.23 -10.16 Z" stroke-linecap="round" />
</g>
</g>
</g>
</svg>